PathFileType   4   (X/Y/Z)																																																																																																																							
DataRate  CameraRate  NumFrames  NumMarkers  Units  OrigDataRate  OrigDataStartFrame  OrigNumFrames  																																																																																																																							
  120.0      120.0        4         39         mm      120.0          28        109																																																																																																																							
Frame#      Time	midhip		hip_r		hip_l		knee_r		knee_l		ankle_r		ankle_l		midasis		asis_r		asis_l		psis_r		psis_l		epicondLat_r		epicondLat_l		epicondMed_r		epicondMed_l		malleolusLat_r		malleolusLat_l		malleolusMedv_r		malleolusMedv_l		heel_r		heel_l		sternalnotch		xyphoidprocess		neck		subclavicle_r		subclavicle_l		toe_r		toe_l		thighwand_r		thighwand_l		upperleg1_r		upperleg1_l		upperleg2_r		upperleg2_l		shankwand_r		shankwand_l		lowerleg1_r		lowerleg1_l		
              X1          Y1          Z1          X2          Y2          Z2          X3          Y3          Z3          X4          Y4          Z4          X5          Y5          Z5          X6          Y6          Z6          X7          Y7          Z7          X8          Y8          Z8          X9          Y9          Z9          X10          Y10          Z10          X11          Y11          Z11          X12          Y12          Z12          X13          Y13          Z13          X14          Y14          Z14          X15          Y15          Z15          X16          Y16          Z16          X17          Y17          Z17          X18          Y18          Z18          X19          Y19          Z19          X20          Y20          Z20          X21          Y21          Z21          X22          Y22          Z22          X23          Y23          Z23          X24          Y24          Z24          X25          Y25          Z25          X26          Y26          Z26          X27          Y27          Z27          X28          Y28          Z28          X29          Y29          Z29          X30          Y30          Z30          X31          Y31          Z31          X32          Y32          Z32          X33          Y33          Z33          X34          Y34          Z34          X35          Y35          Z35          X36          Y36          Z36          X37          Y37          Z37          X38          Y38          Z38          X39          Y39          Z39          																																																																																																																							

	28	1.25	1471.646	881.584	-251.901	1468.461	879.721	-176.777	1474.832	883.446	-327.025	1443.24	469.85	-132.148	1432.393	461.066	-354.995	1405.621	69.707	-128.657	1382.842	71.299	-365.047	1565.771	959.825	-245.97	1560.721	956.872	-126.9	1570.82	962.777	-365.04	1381.194	1017.804	-220.495	1387.644	1016.889	-306.844	1452.461	475.542	-74.661	1440.348	464.066	-412.369	1427.3	476.555	-183.741	1427.511	465.361	-301.321	1391.092	71.398	-91.428	1365.06	74.451	-399.614	1415.558	83.735	-158.203	1391.308	83.723	-337.047	1342.777	42.567	-143.904	1317.631	43.003	-352.199	1487.899	1370.376	-234.251	1569.964	1206.607	-244.431	1374.793	1436.681	-239.103	1497.75	1359.626	-182.157	1510.538	1364.946	-289.139	1525.707	39.435	-99.471	1500.557	41.126	-401.794	1506.451	591.355	-9.602	1596.56	553.103	-341.664	1522.455	650.872	-82.459	1534.954	618.636	-381.344	1513.65	563.572	-97.141	1508.289	535.356	-385.609	1417.914	204.969	-5.567	1406.093	211.916	-479.328	1406.189	171.679	-78.119	1385.569	173.798	-410.434
	29	1.25833	1471.67	881.6	-251.993	1468.464	879.742	-176.869	1474.875	883.457	-327.116	1443.348	469.863	-132.216	1432.446	461.078	-355.029	1405.671	69.693	-128.626	1382.857	71.294	-365.06	1565.771	959.866	-246.042	1560.692	956.923	-127.018	1570.85	962.809	-365.066	1381.144	1017.793	-220.611	1387.661	1016.883	-306.861	1452.523	475.565	-74.722	1440.381	464.072	-412.406	1427.887	476.365	-184.144	1427.346	465.705	-301.27	1391.112	71.397	-91.408	1365.063	74.448	-399.621	1415.512	83.749	-158.163	1391.318	83.654	-337.057	1342.78	42.547	-143.875	1317.627	43.016	-352.19	1487.835	1370.333	-234.266	1569.837	1206.536	-244.488	1374.767	1436.681	-239.162	1497.694	1359.572	-182.199	1510.46	1364.902	-289.136	1525.722	39.409	-99.492	1500.538	41.123	-401.798	1506.477	591.347	-9.609	1596.584	553.106	-341.661	1522.427	650.871	-82.479	1535.139	618.757	-381.437	1513.866	563.433	-97.311	1508.262	535.358	-385.618	1417.918	204.952	-5.573	1406.07	211.919	-479.347	1405.886	171.664	-78.178	1385.57	173.679	-410.403
	30	1.26667	1471.718	881.633	-252.102	1468.488	879.781	-176.98	1474.949	883.485	-327.225	1443.448	469.871	-132.297	1432.447	461.084	-355.052	1405.723	69.681	-128.592	1382.861	71.285	-365.065	1565.782	959.944	-246.126	1560.665	957.01	-127.152	1570.898	962.877	-365.101	1381.053	1017.796	-220.723	1387.685	1016.871	-306.873	1452.572	475.582	-74.796	1440.377	464.066	-412.43	1428.145	476.232	-184.095	1427.348	465.907	-301.137	1391.131	71.401	-91.388	1365.064	74.437	-399.624	1415.613	83.749	-158.137	1391.361	83.656	-337.139	1342.787	42.523	-143.843	1317.613	43.003	-352.167	1487.839	1370.312	-234.199	1569.846	1206.512	-244.347	1374.673	1436.718	-239.228	1497.736	1359.593	-182.155	1510.425	1364.839	-289.055	1525.719	39.397	-99.484	1500.507	41.125	-401.81	1506.504	591.334	-9.609	1596.629	553.125	-341.696	1522.464	650.962	-82.514	1535.253	618.793	-381.483	1513.984	563.406	-97.291	1508.288	535.405	-385.583	1417.949	204.947	-5.582	1406.041	211.926	-479.393	1405.765	171.687	-78.158	1385.528	173.511	-410.355
	31	1.275	1471.774	881.671	-252.217	1468.522	879.82	-177.095	1475.026	883.523	-327.338	1443.519	469.87	-132.374	1432.391	461.092	-355.065	1405.766	69.671	-128.555	1382.853	71.275	-365.066	1565.794	960.032	-246.215	1560.647	957.1	-127.295	1570.942	962.963	-365.136	1380.943	1017.811	-220.826	1387.691	1016.86	-306.889	1452.605	475.589	-74.867	1440.332	464.057	-412.443	1428.137	476.143	-183.919	1427.623	465.745	-300.989	1391.15	71.404	-91.361	1365.063	74.423	-399.629	1415.721	83.818	-158.067	1391.479	83.71	-337.241	1342.788	42.5	-143.81	1317.597	42.975	-352.144	1487.816	1370.35	-234.212	1569.934	1206.587	-244.052	1374.61	1436.661	-239.296	1497.707	1359.728	-182.188	1510.42	1364.796	-289.008	1525.714	39.386	-99.432	1500.473	41.132	-401.823	1506.531	591.317	-9.603	1596.695	553.154	-341.764	1522.492	650.992	-82.512	1535.131	618.769	-381.473	1513.995	563.358	-97.217	1508.342	535.45	-385.538	1418.007	204.952	-5.594	1406.008	211.937	-479.448	1405.979	171.749	-78.046	1385.54	173.465	-410.345
